M48
;DRILL file {KiCad (2017-06-16 revision 2018d4894)-master} date Tue Aug  8 09:06:07 2017
;FORMAT={-:-/ absolute / metric / decimal}
FMAT,2
METRIC,TZ
T1C0.300
T2C1.000
%
G90
G05
M71
T1
X113.85Y-92.7
X114.8Y-94.6
X115.2Y-97.8
X115.7Y-92.2
X115.8Y-95.1
X116.7Y-92.6
X117.5Y-95.9
X117.7Y-93.1
X117.762Y-93.93
X117.762Y-95.17
X118.15Y-94.55
X118.5Y-93.1
X118.537Y-93.93
X118.537Y-95.17
X118.8Y-95.9
X119.5Y-92.6
X121.Y-94.1
X121.1Y-96.8
T2
X115.62Y-100.2
X118.16Y-100.2
X120.7Y-100.2
T0
M30
