G04 #@! TF.GenerationSoftware,KiCad,Pcbnew,(2017-06-16 revision 2018d4894)-master*
G04 #@! TF.CreationDate,2017-08-12T02:41:37+02:00*
G04 #@! TF.ProjectId,LT3045_breakout,4C54333034355F627265616B6F75742E,rev?*
G04 #@! TF.SameCoordinates,Original
G04 #@! TF.FileFunction,Legend,Top*
G04 #@! TF.FilePolarity,Positive*
%FSLAX46Y46*%
G04 Gerber Fmt 4.6, Leading zero omitted, Abs format (unit mm)*
G04 Created by KiCad (PCBNEW (2017-06-16 revision 2018d4894)-master) date Sat Aug 12 02:41:37 2017*
%MOMM*%
%LPD*%
G01*
G04 APERTURE LIST*
%ADD10C,0.100000*%
%ADD11C,0.120000*%
%ADD12C,0.150000*%
G04 APERTURE END LIST*
D10*
D11*
X120420000Y-97100000D02*
X120420000Y-96100000D01*
X121780000Y-96100000D02*
X121780000Y-97100000D01*
X116500000Y-97830000D02*
X115500000Y-97830000D01*
X115500000Y-96470000D02*
X116500000Y-96470000D01*
D12*
X116200000Y-92900000D02*
X119375000Y-92900000D01*
X116925000Y-96200000D02*
X119375000Y-96200000D01*
D11*
X121970000Y-98930000D02*
X121970000Y-100200000D01*
X120700000Y-98930000D02*
X121970000Y-98930000D01*
X115240000Y-101242929D02*
X115240000Y-101640000D01*
X116000000Y-101242929D02*
X116000000Y-101640000D01*
X115240000Y-110300000D02*
X115240000Y-104300000D01*
X116000000Y-110300000D02*
X115240000Y-110300000D01*
X116000000Y-104300000D02*
X116000000Y-110300000D01*
X116890000Y-101640000D02*
X116890000Y-104300000D01*
X117780000Y-101242929D02*
X117780000Y-101640000D01*
X118540000Y-101242929D02*
X118540000Y-101640000D01*
X117780000Y-110300000D02*
X117780000Y-104300000D01*
X118540000Y-110300000D02*
X117780000Y-110300000D01*
X118540000Y-104300000D02*
X118540000Y-110300000D01*
X119430000Y-101640000D02*
X119430000Y-104300000D01*
X120320000Y-101310000D02*
X120320000Y-101640000D01*
X121080000Y-101310000D02*
X121080000Y-101640000D01*
X120420000Y-104300000D02*
X120420000Y-110300000D01*
X120540000Y-104300000D02*
X120540000Y-110300000D01*
X120660000Y-104300000D02*
X120660000Y-110300000D01*
X120780000Y-104300000D02*
X120780000Y-110300000D01*
X120900000Y-104300000D02*
X120900000Y-110300000D01*
X121020000Y-104300000D02*
X121020000Y-110300000D01*
X120320000Y-110300000D02*
X120320000Y-104300000D01*
X121080000Y-110300000D02*
X120320000Y-110300000D01*
X121080000Y-104300000D02*
X121080000Y-110300000D01*
X122030000Y-104300000D02*
X122030000Y-101640000D01*
X114290000Y-104300000D02*
X122030000Y-104300000D01*
X114290000Y-101640000D02*
X114290000Y-104300000D01*
X122030000Y-101640000D02*
X114290000Y-101640000D01*
X118550000Y-96500000D02*
X119250000Y-96500000D01*
X119250000Y-97700000D02*
X118550000Y-97700000D01*
X115400000Y-94100000D02*
X115400000Y-94800000D01*
X114200000Y-94800000D02*
X114200000Y-94100000D01*
X120450000Y-94200000D02*
X120450000Y-93500000D01*
X121650000Y-93500000D02*
X121650000Y-94200000D01*
X118200000Y-98930000D02*
X118700000Y-98930000D01*
X118700000Y-97870000D02*
X118200000Y-97870000D01*
X121650000Y-92430000D02*
X122150000Y-92430000D01*
X122150000Y-91370000D02*
X121650000Y-91370000D01*
X114550000Y-91570000D02*
X114050000Y-91570000D01*
X114050000Y-92630000D02*
X114550000Y-92630000D01*
M02*
