G04 #@! TF.GenerationSoftware,KiCad,Pcbnew,(2017-06-16 revision 2018d4894)-master*
G04 #@! TF.CreationDate,2017-08-15T09:07:23+02:00*
G04 #@! TF.ProjectId,LT3045_breakout,4C54333034355F627265616B6F75742E,rev?*
G04 #@! TF.SameCoordinates,Original
G04 #@! TF.FileFunction,Legend,Bot*
G04 #@! TF.FilePolarity,Positive*
%FSLAX46Y46*%
G04 Gerber Fmt 4.6, Leading zero omitted, Abs format (unit mm)*
G04 Created by KiCad (PCBNEW (2017-06-16 revision 2018d4894)-master) date Tue Aug 15 09:07:23 2017*
%MOMM*%
%LPD*%
G01*
G04 APERTURE LIST*
%ADD10C,0.100000*%
%ADD11C,0.200000*%
%ADD12C,0.010000*%
G04 APERTURE END LIST*
D10*
D11*
X122261904Y-92519047D02*
X122261904Y-92138095D01*
X121461904Y-92138095D01*
X121461904Y-92671428D02*
X121461904Y-93128571D01*
X122261904Y-92900000D02*
X121461904Y-92900000D01*
X121461904Y-93319047D02*
X121461904Y-93814285D01*
X121766666Y-93547619D01*
X121766666Y-93661904D01*
X121804761Y-93738095D01*
X121842857Y-93776190D01*
X121919047Y-93814285D01*
X122109523Y-93814285D01*
X122185714Y-93776190D01*
X122223809Y-93738095D01*
X122261904Y-93661904D01*
X122261904Y-93433333D01*
X122223809Y-93357142D01*
X122185714Y-93319047D01*
X121461904Y-94309523D02*
X121461904Y-94385714D01*
X121500000Y-94461904D01*
X121538095Y-94500000D01*
X121614285Y-94538095D01*
X121766666Y-94576190D01*
X121957142Y-94576190D01*
X122109523Y-94538095D01*
X122185714Y-94500000D01*
X122223809Y-94461904D01*
X122261904Y-94385714D01*
X122261904Y-94309523D01*
X122223809Y-94233333D01*
X122185714Y-94195238D01*
X122109523Y-94157142D01*
X121957142Y-94119047D01*
X121766666Y-94119047D01*
X121614285Y-94157142D01*
X121538095Y-94195238D01*
X121500000Y-94233333D01*
X121461904Y-94309523D01*
X121728571Y-95261904D02*
X122261904Y-95261904D01*
X121423809Y-95071428D02*
X121995238Y-94880952D01*
X121995238Y-95376190D01*
X121461904Y-96061904D02*
X121461904Y-95680952D01*
X121842857Y-95642857D01*
X121804761Y-95680952D01*
X121766666Y-95757142D01*
X121766666Y-95947619D01*
X121804761Y-96023809D01*
X121842857Y-96061904D01*
X121919047Y-96100000D01*
X122109523Y-96100000D01*
X122185714Y-96061904D01*
X122223809Y-96023809D01*
X122261904Y-95947619D01*
X122261904Y-95757142D01*
X122223809Y-95680952D01*
X122185714Y-95642857D01*
X114761904Y-92519047D02*
X114761904Y-92138095D01*
X113961904Y-92138095D01*
X113961904Y-92671428D02*
X113961904Y-93128571D01*
X114761904Y-92900000D02*
X113961904Y-92900000D01*
X113961904Y-93319047D02*
X113961904Y-93814285D01*
X114266666Y-93547619D01*
X114266666Y-93661904D01*
X114304761Y-93738095D01*
X114342857Y-93776190D01*
X114419047Y-93814285D01*
X114609523Y-93814285D01*
X114685714Y-93776190D01*
X114723809Y-93738095D01*
X114761904Y-93661904D01*
X114761904Y-93433333D01*
X114723809Y-93357142D01*
X114685714Y-93319047D01*
X113961904Y-94309523D02*
X113961904Y-94385714D01*
X114000000Y-94461904D01*
X114038095Y-94500000D01*
X114114285Y-94538095D01*
X114266666Y-94576190D01*
X114457142Y-94576190D01*
X114609523Y-94538095D01*
X114685714Y-94500000D01*
X114723809Y-94461904D01*
X114761904Y-94385714D01*
X114761904Y-94309523D01*
X114723809Y-94233333D01*
X114685714Y-94195238D01*
X114609523Y-94157142D01*
X114457142Y-94119047D01*
X114266666Y-94119047D01*
X114114285Y-94157142D01*
X114038095Y-94195238D01*
X114000000Y-94233333D01*
X113961904Y-94309523D01*
X114228571Y-95261904D02*
X114761904Y-95261904D01*
X113923809Y-95071428D02*
X114495238Y-94880952D01*
X114495238Y-95376190D01*
X114038095Y-95642857D02*
X114000000Y-95680952D01*
X113961904Y-95757142D01*
X113961904Y-95947619D01*
X114000000Y-96023809D01*
X114038095Y-96061904D01*
X114114285Y-96100000D01*
X114190476Y-96100000D01*
X114304761Y-96061904D01*
X114761904Y-95604761D01*
X114761904Y-96100000D01*
X122728571Y-98611904D02*
X122728571Y-97811904D01*
X122728571Y-98116666D02*
X122652380Y-98078571D01*
X122500000Y-98078571D01*
X122423809Y-98116666D01*
X122385714Y-98154761D01*
X122347619Y-98230952D01*
X122347619Y-98459523D01*
X122385714Y-98535714D01*
X122423809Y-98573809D01*
X122500000Y-98611904D01*
X122652380Y-98611904D01*
X122728571Y-98573809D01*
X122080952Y-98078571D02*
X121890476Y-98611904D01*
X121700000Y-98078571D02*
X121890476Y-98611904D01*
X121966666Y-98802380D01*
X122004761Y-98840476D01*
X122080952Y-98878571D01*
X120785714Y-98611904D02*
X120785714Y-97811904D01*
X120480952Y-97811904D01*
X120404761Y-97850000D01*
X120366666Y-97888095D01*
X120328571Y-97964285D01*
X120328571Y-98078571D01*
X120366666Y-98154761D01*
X120404761Y-98192857D01*
X120480952Y-98230952D01*
X120785714Y-98230952D01*
X119642857Y-98611904D02*
X119642857Y-98192857D01*
X119680952Y-98116666D01*
X119757142Y-98078571D01*
X119909523Y-98078571D01*
X119985714Y-98116666D01*
X119642857Y-98573809D02*
X119719047Y-98611904D01*
X119909523Y-98611904D01*
X119985714Y-98573809D01*
X120023809Y-98497619D01*
X120023809Y-98421428D01*
X119985714Y-98345238D01*
X119909523Y-98307142D01*
X119719047Y-98307142D01*
X119642857Y-98269047D01*
X119376190Y-98078571D02*
X119071428Y-98078571D01*
X119261904Y-97811904D02*
X119261904Y-98497619D01*
X119223809Y-98573809D01*
X119147619Y-98611904D01*
X119071428Y-98611904D01*
X118804761Y-98611904D02*
X118804761Y-98078571D01*
X118804761Y-98230952D02*
X118766666Y-98154761D01*
X118728571Y-98116666D01*
X118652380Y-98078571D01*
X118576190Y-98078571D01*
X118309523Y-98611904D02*
X118309523Y-98078571D01*
X118309523Y-97811904D02*
X118347619Y-97850000D01*
X118309523Y-97888095D01*
X118271428Y-97850000D01*
X118309523Y-97811904D01*
X118309523Y-97888095D01*
X117585714Y-98573809D02*
X117661904Y-98611904D01*
X117814285Y-98611904D01*
X117890476Y-98573809D01*
X117928571Y-98535714D01*
X117966666Y-98459523D01*
X117966666Y-98230952D01*
X117928571Y-98154761D01*
X117890476Y-98116666D01*
X117814285Y-98078571D01*
X117661904Y-98078571D01*
X117585714Y-98116666D01*
X117242857Y-98611904D02*
X117242857Y-97811904D01*
X117166666Y-98307142D02*
X116938095Y-98611904D01*
X116938095Y-98078571D02*
X117242857Y-98383333D01*
X115719047Y-98192857D02*
X115604761Y-98230952D01*
X115566666Y-98269047D01*
X115528571Y-98345238D01*
X115528571Y-98459523D01*
X115566666Y-98535714D01*
X115604761Y-98573809D01*
X115680952Y-98611904D01*
X115985714Y-98611904D01*
X115985714Y-97811904D01*
X115719047Y-97811904D01*
X115642857Y-97850000D01*
X115604761Y-97888095D01*
X115566666Y-97964285D01*
X115566666Y-98040476D01*
X115604761Y-98116666D01*
X115642857Y-98154761D01*
X115719047Y-98192857D01*
X115985714Y-98192857D01*
X114842857Y-98611904D02*
X114842857Y-98192857D01*
X114880952Y-98116666D01*
X114957142Y-98078571D01*
X115109523Y-98078571D01*
X115185714Y-98116666D01*
X114842857Y-98573809D02*
X114919047Y-98611904D01*
X115109523Y-98611904D01*
X115185714Y-98573809D01*
X115223809Y-98497619D01*
X115223809Y-98421428D01*
X115185714Y-98345238D01*
X115109523Y-98307142D01*
X114919047Y-98307142D01*
X114842857Y-98269047D01*
X114119047Y-98078571D02*
X114119047Y-98611904D01*
X114461904Y-98078571D02*
X114461904Y-98497619D01*
X114423809Y-98573809D01*
X114347619Y-98611904D01*
X114233333Y-98611904D01*
X114157142Y-98573809D01*
X114119047Y-98535714D01*
X113776190Y-98573809D02*
X113700000Y-98611904D01*
X113547619Y-98611904D01*
X113471428Y-98573809D01*
X113433333Y-98497619D01*
X113433333Y-98459523D01*
X113471428Y-98383333D01*
X113547619Y-98345238D01*
X113661904Y-98345238D01*
X113738095Y-98307142D01*
X113776190Y-98230952D01*
X113776190Y-98192857D01*
X113738095Y-98116666D01*
X113661904Y-98078571D01*
X113547619Y-98078571D01*
X113471428Y-98116666D01*
D12*
G36*
X120400256Y-96669918D02*
X120344799Y-96697568D01*
X120295852Y-96748480D01*
X120282371Y-96767338D01*
X120267686Y-96792015D01*
X120258158Y-96818816D01*
X120252707Y-96854587D01*
X120250253Y-96906169D01*
X120249714Y-96974267D01*
X120252148Y-97067588D01*
X120260606Y-97137657D01*
X120276826Y-97189931D01*
X120302546Y-97229869D01*
X120339503Y-97262929D01*
X120342218Y-97264886D01*
X120378640Y-97284908D01*
X120422498Y-97294815D01*
X120478276Y-97297257D01*
X120568952Y-97297257D01*
X120568990Y-97385283D01*
X120569834Y-97434308D01*
X120574976Y-97463065D01*
X120588413Y-97480311D01*
X120614142Y-97494808D01*
X120620321Y-97497769D01*
X120649236Y-97511648D01*
X120671624Y-97520414D01*
X120688271Y-97521171D01*
X120699964Y-97511023D01*
X120707490Y-97487073D01*
X120711634Y-97446426D01*
X120713185Y-97386186D01*
X120712929Y-97303455D01*
X120711651Y-97195339D01*
X120711252Y-97163000D01*
X120709815Y-97051524D01*
X120708528Y-96978603D01*
X120569029Y-96978603D01*
X120568245Y-97040499D01*
X120564760Y-97080997D01*
X120556876Y-97107708D01*
X120542895Y-97128244D01*
X120533403Y-97138260D01*
X120494596Y-97167567D01*
X120460237Y-97169952D01*
X120424784Y-97145750D01*
X120423886Y-97144857D01*
X120409461Y-97126153D01*
X120400687Y-97100732D01*
X120396261Y-97061584D01*
X120394882Y-97001697D01*
X120394857Y-96988430D01*
X120398188Y-96905901D01*
X120409031Y-96848691D01*
X120428660Y-96813766D01*
X120458350Y-96798094D01*
X120475509Y-96796514D01*
X120516234Y-96803926D01*
X120544168Y-96828330D01*
X120560983Y-96872980D01*
X120568350Y-96941130D01*
X120569029Y-96978603D01*
X120708528Y-96978603D01*
X120708292Y-96965245D01*
X120706323Y-96900333D01*
X120703550Y-96852958D01*
X120699612Y-96819290D01*
X120694151Y-96795498D01*
X120686808Y-96777753D01*
X120677223Y-96762224D01*
X120673113Y-96756381D01*
X120618595Y-96701185D01*
X120549664Y-96669890D01*
X120469928Y-96661165D01*
X120400256Y-96669918D01*
X120400256Y-96669918D01*
G37*
X120400256Y-96669918D02*
X120344799Y-96697568D01*
X120295852Y-96748480D01*
X120282371Y-96767338D01*
X120267686Y-96792015D01*
X120258158Y-96818816D01*
X120252707Y-96854587D01*
X120250253Y-96906169D01*
X120249714Y-96974267D01*
X120252148Y-97067588D01*
X120260606Y-97137657D01*
X120276826Y-97189931D01*
X120302546Y-97229869D01*
X120339503Y-97262929D01*
X120342218Y-97264886D01*
X120378640Y-97284908D01*
X120422498Y-97294815D01*
X120478276Y-97297257D01*
X120568952Y-97297257D01*
X120568990Y-97385283D01*
X120569834Y-97434308D01*
X120574976Y-97463065D01*
X120588413Y-97480311D01*
X120614142Y-97494808D01*
X120620321Y-97497769D01*
X120649236Y-97511648D01*
X120671624Y-97520414D01*
X120688271Y-97521171D01*
X120699964Y-97511023D01*
X120707490Y-97487073D01*
X120711634Y-97446426D01*
X120713185Y-97386186D01*
X120712929Y-97303455D01*
X120711651Y-97195339D01*
X120711252Y-97163000D01*
X120709815Y-97051524D01*
X120708528Y-96978603D01*
X120569029Y-96978603D01*
X120568245Y-97040499D01*
X120564760Y-97080997D01*
X120556876Y-97107708D01*
X120542895Y-97128244D01*
X120533403Y-97138260D01*
X120494596Y-97167567D01*
X120460237Y-97169952D01*
X120424784Y-97145750D01*
X120423886Y-97144857D01*
X120409461Y-97126153D01*
X120400687Y-97100732D01*
X120396261Y-97061584D01*
X120394882Y-97001697D01*
X120394857Y-96988430D01*
X120398188Y-96905901D01*
X120409031Y-96848691D01*
X120428660Y-96813766D01*
X120458350Y-96798094D01*
X120475509Y-96796514D01*
X120516234Y-96803926D01*
X120544168Y-96828330D01*
X120560983Y-96872980D01*
X120568350Y-96941130D01*
X120569029Y-96978603D01*
X120708528Y-96978603D01*
X120708292Y-96965245D01*
X120706323Y-96900333D01*
X120703550Y-96852958D01*
X120699612Y-96819290D01*
X120694151Y-96795498D01*
X120686808Y-96777753D01*
X120677223Y-96762224D01*
X120673113Y-96756381D01*
X120618595Y-96701185D01*
X120549664Y-96669890D01*
X120469928Y-96661165D01*
X120400256Y-96669918D01*
G36*
X119283907Y-96677780D02*
X119237328Y-96704723D01*
X119204943Y-96731466D01*
X119181258Y-96759484D01*
X119164941Y-96793748D01*
X119154661Y-96839227D01*
X119149086Y-96900892D01*
X119146884Y-96983711D01*
X119146629Y-97043246D01*
X119146629Y-97262391D01*
X119208314Y-97290044D01*
X119270000Y-97317697D01*
X119277257Y-97077670D01*
X119280256Y-96988028D01*
X119283402Y-96922962D01*
X119287299Y-96878026D01*
X119292553Y-96848770D01*
X119299769Y-96830748D01*
X119309550Y-96819511D01*
X119312688Y-96817079D01*
X119360239Y-96798083D01*
X119408303Y-96805600D01*
X119436914Y-96825543D01*
X119448553Y-96839675D01*
X119456609Y-96858220D01*
X119461729Y-96886334D01*
X119464559Y-96929173D01*
X119465744Y-96991895D01*
X119465943Y-97057261D01*
X119465982Y-97139268D01*
X119467386Y-97197316D01*
X119472086Y-97236465D01*
X119482013Y-97261780D01*
X119499097Y-97278323D01*
X119525268Y-97291156D01*
X119560225Y-97304491D01*
X119598404Y-97319007D01*
X119593859Y-97061389D01*
X119592029Y-96968519D01*
X119589888Y-96899889D01*
X119586819Y-96850711D01*
X119582206Y-96816198D01*
X119575432Y-96791562D01*
X119565881Y-96772016D01*
X119554366Y-96754770D01*
X119498810Y-96699680D01*
X119431020Y-96667822D01*
X119357287Y-96660191D01*
X119283907Y-96677780D01*
X119283907Y-96677780D01*
G37*
X119283907Y-96677780D02*
X119237328Y-96704723D01*
X119204943Y-96731466D01*
X119181258Y-96759484D01*
X119164941Y-96793748D01*
X119154661Y-96839227D01*
X119149086Y-96900892D01*
X119146884Y-96983711D01*
X119146629Y-97043246D01*
X119146629Y-97262391D01*
X119208314Y-97290044D01*
X119270000Y-97317697D01*
X119277257Y-97077670D01*
X119280256Y-96988028D01*
X119283402Y-96922962D01*
X119287299Y-96878026D01*
X119292553Y-96848770D01*
X119299769Y-96830748D01*
X119309550Y-96819511D01*
X119312688Y-96817079D01*
X119360239Y-96798083D01*
X119408303Y-96805600D01*
X119436914Y-96825543D01*
X119448553Y-96839675D01*
X119456609Y-96858220D01*
X119461729Y-96886334D01*
X119464559Y-96929173D01*
X119465744Y-96991895D01*
X119465943Y-97057261D01*
X119465982Y-97139268D01*
X119467386Y-97197316D01*
X119472086Y-97236465D01*
X119482013Y-97261780D01*
X119499097Y-97278323D01*
X119525268Y-97291156D01*
X119560225Y-97304491D01*
X119598404Y-97319007D01*
X119593859Y-97061389D01*
X119592029Y-96968519D01*
X119589888Y-96899889D01*
X119586819Y-96850711D01*
X119582206Y-96816198D01*
X119575432Y-96791562D01*
X119565881Y-96772016D01*
X119554366Y-96754770D01*
X119498810Y-96699680D01*
X119431020Y-96667822D01*
X119357287Y-96660191D01*
X119283907Y-96677780D01*
G36*
X120958885Y-96671962D02*
X120890855Y-96707733D01*
X120840649Y-96765301D01*
X120822815Y-96802312D01*
X120808937Y-96857882D01*
X120801833Y-96928096D01*
X120801160Y-97004727D01*
X120806573Y-97079552D01*
X120817730Y-97144342D01*
X120834286Y-97190873D01*
X120839374Y-97198887D01*
X120899645Y-97258707D01*
X120971231Y-97294535D01*
X121048908Y-97305020D01*
X121127452Y-97288810D01*
X121149311Y-97279092D01*
X121191878Y-97249143D01*
X121229237Y-97209433D01*
X121232768Y-97204397D01*
X121247119Y-97180124D01*
X121256606Y-97154178D01*
X121262210Y-97120022D01*
X121264914Y-97071119D01*
X121265701Y-97000935D01*
X121265714Y-96985200D01*
X121265678Y-96980192D01*
X121120571Y-96980192D01*
X121119727Y-97046430D01*
X121116404Y-97090386D01*
X121109417Y-97118779D01*
X121097584Y-97138325D01*
X121091543Y-97144857D01*
X121056814Y-97169680D01*
X121023097Y-97168548D01*
X120989005Y-97147016D01*
X120968671Y-97124029D01*
X120956629Y-97090478D01*
X120949866Y-97037569D01*
X120949402Y-97031399D01*
X120948248Y-96935513D01*
X120960312Y-96864299D01*
X120985430Y-96818194D01*
X121023440Y-96797635D01*
X121037008Y-96796514D01*
X121072636Y-96802152D01*
X121097006Y-96821686D01*
X121111907Y-96859042D01*
X121119125Y-96918150D01*
X121120571Y-96980192D01*
X121265678Y-96980192D01*
X121265174Y-96910413D01*
X121262904Y-96858159D01*
X121257932Y-96821949D01*
X121249287Y-96795299D01*
X121235995Y-96771722D01*
X121233057Y-96767338D01*
X121183687Y-96708249D01*
X121129891Y-96673947D01*
X121064398Y-96660331D01*
X121042158Y-96659665D01*
X120958885Y-96671962D01*
X120958885Y-96671962D01*
G37*
X120958885Y-96671962D02*
X120890855Y-96707733D01*
X120840649Y-96765301D01*
X120822815Y-96802312D01*
X120808937Y-96857882D01*
X120801833Y-96928096D01*
X120801160Y-97004727D01*
X120806573Y-97079552D01*
X120817730Y-97144342D01*
X120834286Y-97190873D01*
X120839374Y-97198887D01*
X120899645Y-97258707D01*
X120971231Y-97294535D01*
X121048908Y-97305020D01*
X121127452Y-97288810D01*
X121149311Y-97279092D01*
X121191878Y-97249143D01*
X121229237Y-97209433D01*
X121232768Y-97204397D01*
X121247119Y-97180124D01*
X121256606Y-97154178D01*
X121262210Y-97120022D01*
X121264914Y-97071119D01*
X121265701Y-97000935D01*
X121265714Y-96985200D01*
X121265678Y-96980192D01*
X121120571Y-96980192D01*
X121119727Y-97046430D01*
X121116404Y-97090386D01*
X121109417Y-97118779D01*
X121097584Y-97138325D01*
X121091543Y-97144857D01*
X121056814Y-97169680D01*
X121023097Y-97168548D01*
X120989005Y-97147016D01*
X120968671Y-97124029D01*
X120956629Y-97090478D01*
X120949866Y-97037569D01*
X120949402Y-97031399D01*
X120948248Y-96935513D01*
X120960312Y-96864299D01*
X120985430Y-96818194D01*
X121023440Y-96797635D01*
X121037008Y-96796514D01*
X121072636Y-96802152D01*
X121097006Y-96821686D01*
X121111907Y-96859042D01*
X121119125Y-96918150D01*
X121120571Y-96980192D01*
X121265678Y-96980192D01*
X121265174Y-96910413D01*
X121262904Y-96858159D01*
X121257932Y-96821949D01*
X121249287Y-96795299D01*
X121235995Y-96771722D01*
X121233057Y-96767338D01*
X121183687Y-96708249D01*
X121129891Y-96673947D01*
X121064398Y-96660331D01*
X121042158Y-96659665D01*
X120958885Y-96671962D01*
G36*
X119831697Y-96681239D02*
X119774473Y-96719735D01*
X119730251Y-96775335D01*
X119703833Y-96846086D01*
X119698490Y-96898162D01*
X119699097Y-96919893D01*
X119704178Y-96936531D01*
X119718145Y-96951437D01*
X119745411Y-96967973D01*
X119790388Y-96989498D01*
X119857489Y-97019374D01*
X119857829Y-97019524D01*
X119919593Y-97047813D01*
X119970241Y-97072933D01*
X120004596Y-97092179D01*
X120017482Y-97102848D01*
X120017486Y-97102934D01*
X120006128Y-97126166D01*
X119979569Y-97151774D01*
X119949077Y-97170221D01*
X119933630Y-97173886D01*
X119891485Y-97161212D01*
X119855192Y-97129471D01*
X119837483Y-97094572D01*
X119820448Y-97068845D01*
X119787078Y-97039546D01*
X119747851Y-97014235D01*
X119713244Y-97000471D01*
X119706007Y-96999714D01*
X119697861Y-97012160D01*
X119697370Y-97043972D01*
X119703357Y-97086866D01*
X119714643Y-97132558D01*
X119730050Y-97172761D01*
X119730829Y-97174322D01*
X119777196Y-97239062D01*
X119837289Y-97283097D01*
X119905535Y-97304711D01*
X119976362Y-97302185D01*
X120044196Y-97273804D01*
X120047212Y-97271808D01*
X120100573Y-97223448D01*
X120135660Y-97160352D01*
X120155078Y-97077387D01*
X120157684Y-97054078D01*
X120162299Y-96944055D01*
X120156767Y-96892748D01*
X120017486Y-96892748D01*
X120015676Y-96924753D01*
X120005778Y-96934093D01*
X119981102Y-96927105D01*
X119942205Y-96910587D01*
X119898725Y-96889881D01*
X119897644Y-96889333D01*
X119860791Y-96869949D01*
X119846000Y-96857013D01*
X119849647Y-96843451D01*
X119865005Y-96825632D01*
X119904077Y-96799845D01*
X119946154Y-96797950D01*
X119983897Y-96816717D01*
X120009966Y-96852915D01*
X120017486Y-96892748D01*
X120156767Y-96892748D01*
X120152806Y-96856027D01*
X120128450Y-96786212D01*
X120094544Y-96737302D01*
X120033347Y-96687878D01*
X119965937Y-96663359D01*
X119897120Y-96661797D01*
X119831697Y-96681239D01*
X119831697Y-96681239D01*
G37*
X119831697Y-96681239D02*
X119774473Y-96719735D01*
X119730251Y-96775335D01*
X119703833Y-96846086D01*
X119698490Y-96898162D01*
X119699097Y-96919893D01*
X119704178Y-96936531D01*
X119718145Y-96951437D01*
X119745411Y-96967973D01*
X119790388Y-96989498D01*
X119857489Y-97019374D01*
X119857829Y-97019524D01*
X119919593Y-97047813D01*
X119970241Y-97072933D01*
X120004596Y-97092179D01*
X120017482Y-97102848D01*
X120017486Y-97102934D01*
X120006128Y-97126166D01*
X119979569Y-97151774D01*
X119949077Y-97170221D01*
X119933630Y-97173886D01*
X119891485Y-97161212D01*
X119855192Y-97129471D01*
X119837483Y-97094572D01*
X119820448Y-97068845D01*
X119787078Y-97039546D01*
X119747851Y-97014235D01*
X119713244Y-97000471D01*
X119706007Y-96999714D01*
X119697861Y-97012160D01*
X119697370Y-97043972D01*
X119703357Y-97086866D01*
X119714643Y-97132558D01*
X119730050Y-97172761D01*
X119730829Y-97174322D01*
X119777196Y-97239062D01*
X119837289Y-97283097D01*
X119905535Y-97304711D01*
X119976362Y-97302185D01*
X120044196Y-97273804D01*
X120047212Y-97271808D01*
X120100573Y-97223448D01*
X120135660Y-97160352D01*
X120155078Y-97077387D01*
X120157684Y-97054078D01*
X120162299Y-96944055D01*
X120156767Y-96892748D01*
X120017486Y-96892748D01*
X120015676Y-96924753D01*
X120005778Y-96934093D01*
X119981102Y-96927105D01*
X119942205Y-96910587D01*
X119898725Y-96889881D01*
X119897644Y-96889333D01*
X119860791Y-96869949D01*
X119846000Y-96857013D01*
X119849647Y-96843451D01*
X119865005Y-96825632D01*
X119904077Y-96799845D01*
X119946154Y-96797950D01*
X119983897Y-96816717D01*
X120009966Y-96852915D01*
X120017486Y-96892748D01*
X120156767Y-96892748D01*
X120152806Y-96856027D01*
X120128450Y-96786212D01*
X120094544Y-96737302D01*
X120033347Y-96687878D01*
X119965937Y-96663359D01*
X119897120Y-96661797D01*
X119831697Y-96681239D01*
G36*
X118624114Y-96601289D02*
X118619861Y-96660613D01*
X118614975Y-96695572D01*
X118608205Y-96710820D01*
X118598298Y-96711015D01*
X118595086Y-96709195D01*
X118552356Y-96696015D01*
X118496773Y-96696785D01*
X118440263Y-96710333D01*
X118404918Y-96727861D01*
X118368679Y-96755861D01*
X118342187Y-96787549D01*
X118324001Y-96827813D01*
X118312678Y-96881543D01*
X118306778Y-96953626D01*
X118304857Y-97048951D01*
X118304823Y-97067237D01*
X118304800Y-97272646D01*
X118350509Y-97288580D01*
X118382973Y-97299420D01*
X118400785Y-97304468D01*
X118401309Y-97304514D01*
X118403063Y-97290828D01*
X118404556Y-97253076D01*
X118405674Y-97196224D01*
X118406303Y-97125234D01*
X118406400Y-97082073D01*
X118406602Y-96996973D01*
X118407642Y-96935981D01*
X118410169Y-96894177D01*
X118414836Y-96866642D01*
X118422293Y-96848456D01*
X118433189Y-96834698D01*
X118439993Y-96828073D01*
X118486728Y-96801375D01*
X118537728Y-96799375D01*
X118583999Y-96821955D01*
X118592556Y-96830107D01*
X118605107Y-96845436D01*
X118613812Y-96863618D01*
X118619369Y-96889909D01*
X118622474Y-96929562D01*
X118623824Y-96987832D01*
X118624114Y-97068173D01*
X118624114Y-97272646D01*
X118669823Y-97288580D01*
X118702287Y-97299420D01*
X118720099Y-97304468D01*
X118720623Y-97304514D01*
X118721963Y-97290623D01*
X118723172Y-97251439D01*
X118724199Y-97190700D01*
X118724998Y-97112141D01*
X118725519Y-97019498D01*
X118725714Y-96916509D01*
X118725714Y-96519342D01*
X118678543Y-96499444D01*
X118631371Y-96479547D01*
X118624114Y-96601289D01*
X118624114Y-96601289D01*
G37*
X118624114Y-96601289D02*
X118619861Y-96660613D01*
X118614975Y-96695572D01*
X118608205Y-96710820D01*
X118598298Y-96711015D01*
X118595086Y-96709195D01*
X118552356Y-96696015D01*
X118496773Y-96696785D01*
X118440263Y-96710333D01*
X118404918Y-96727861D01*
X118368679Y-96755861D01*
X118342187Y-96787549D01*
X118324001Y-96827813D01*
X118312678Y-96881543D01*
X118306778Y-96953626D01*
X118304857Y-97048951D01*
X118304823Y-97067237D01*
X118304800Y-97272646D01*
X118350509Y-97288580D01*
X118382973Y-97299420D01*
X118400785Y-97304468D01*
X118401309Y-97304514D01*
X118403063Y-97290828D01*
X118404556Y-97253076D01*
X118405674Y-97196224D01*
X118406303Y-97125234D01*
X118406400Y-97082073D01*
X118406602Y-96996973D01*
X118407642Y-96935981D01*
X118410169Y-96894177D01*
X118414836Y-96866642D01*
X118422293Y-96848456D01*
X118433189Y-96834698D01*
X118439993Y-96828073D01*
X118486728Y-96801375D01*
X118537728Y-96799375D01*
X118583999Y-96821955D01*
X118592556Y-96830107D01*
X118605107Y-96845436D01*
X118613812Y-96863618D01*
X118619369Y-96889909D01*
X118622474Y-96929562D01*
X118623824Y-96987832D01*
X118624114Y-97068173D01*
X118624114Y-97272646D01*
X118669823Y-97288580D01*
X118702287Y-97299420D01*
X118720099Y-97304468D01*
X118720623Y-97304514D01*
X118721963Y-97290623D01*
X118723172Y-97251439D01*
X118724199Y-97190700D01*
X118724998Y-97112141D01*
X118725519Y-97019498D01*
X118725714Y-96916509D01*
X118725714Y-96519342D01*
X118678543Y-96499444D01*
X118631371Y-96479547D01*
X118624114Y-96601289D01*
G36*
X117960256Y-96700968D02*
X117903384Y-96722087D01*
X117902733Y-96722493D01*
X117867560Y-96748380D01*
X117841593Y-96778633D01*
X117823330Y-96818058D01*
X117811268Y-96871462D01*
X117803904Y-96943651D01*
X117799736Y-97039432D01*
X117799371Y-97053078D01*
X117794124Y-97258842D01*
X117838284Y-97281678D01*
X117870237Y-97297110D01*
X117889530Y-97304423D01*
X117890422Y-97304514D01*
X117893761Y-97291022D01*
X117896413Y-97254626D01*
X117898044Y-97201452D01*
X117898400Y-97158393D01*
X117898408Y-97088641D01*
X117901597Y-97044837D01*
X117912712Y-97023944D01*
X117936499Y-97022925D01*
X117977704Y-97038741D01*
X118039914Y-97067815D01*
X118085659Y-97091963D01*
X118109187Y-97112913D01*
X118116104Y-97135747D01*
X118116114Y-97136877D01*
X118104701Y-97176212D01*
X118070908Y-97197462D01*
X118019191Y-97200539D01*
X117981939Y-97200006D01*
X117962297Y-97210735D01*
X117950048Y-97236505D01*
X117942998Y-97269337D01*
X117953158Y-97287966D01*
X117956983Y-97290632D01*
X117992999Y-97301340D01*
X118043434Y-97302856D01*
X118095374Y-97295759D01*
X118132178Y-97282788D01*
X118183062Y-97239585D01*
X118211986Y-97179446D01*
X118217714Y-97132462D01*
X118213343Y-97090082D01*
X118197525Y-97055488D01*
X118166203Y-97024763D01*
X118115322Y-96993990D01*
X118040824Y-96959252D01*
X118036286Y-96957288D01*
X117969179Y-96926287D01*
X117927768Y-96900862D01*
X117910019Y-96878014D01*
X117913893Y-96854745D01*
X117937357Y-96828056D01*
X117944373Y-96821914D01*
X117991370Y-96798100D01*
X118040067Y-96799103D01*
X118082478Y-96822451D01*
X118110616Y-96865675D01*
X118113231Y-96874160D01*
X118138692Y-96915308D01*
X118170999Y-96935128D01*
X118217714Y-96954770D01*
X118217714Y-96903950D01*
X118203504Y-96830082D01*
X118161325Y-96762327D01*
X118139376Y-96739661D01*
X118089483Y-96710569D01*
X118026033Y-96697400D01*
X117960256Y-96700968D01*
X117960256Y-96700968D01*
G37*
X117960256Y-96700968D02*
X117903384Y-96722087D01*
X117902733Y-96722493D01*
X117867560Y-96748380D01*
X117841593Y-96778633D01*
X117823330Y-96818058D01*
X117811268Y-96871462D01*
X117803904Y-96943651D01*
X117799736Y-97039432D01*
X117799371Y-97053078D01*
X117794124Y-97258842D01*
X117838284Y-97281678D01*
X117870237Y-97297110D01*
X117889530Y-97304423D01*
X117890422Y-97304514D01*
X117893761Y-97291022D01*
X117896413Y-97254626D01*
X117898044Y-97201452D01*
X117898400Y-97158393D01*
X117898408Y-97088641D01*
X117901597Y-97044837D01*
X117912712Y-97023944D01*
X117936499Y-97022925D01*
X117977704Y-97038741D01*
X118039914Y-97067815D01*
X118085659Y-97091963D01*
X118109187Y-97112913D01*
X118116104Y-97135747D01*
X118116114Y-97136877D01*
X118104701Y-97176212D01*
X118070908Y-97197462D01*
X118019191Y-97200539D01*
X117981939Y-97200006D01*
X117962297Y-97210735D01*
X117950048Y-97236505D01*
X117942998Y-97269337D01*
X117953158Y-97287966D01*
X117956983Y-97290632D01*
X117992999Y-97301340D01*
X118043434Y-97302856D01*
X118095374Y-97295759D01*
X118132178Y-97282788D01*
X118183062Y-97239585D01*
X118211986Y-97179446D01*
X118217714Y-97132462D01*
X118213343Y-97090082D01*
X118197525Y-97055488D01*
X118166203Y-97024763D01*
X118115322Y-96993990D01*
X118040824Y-96959252D01*
X118036286Y-96957288D01*
X117969179Y-96926287D01*
X117927768Y-96900862D01*
X117910019Y-96878014D01*
X117913893Y-96854745D01*
X117937357Y-96828056D01*
X117944373Y-96821914D01*
X117991370Y-96798100D01*
X118040067Y-96799103D01*
X118082478Y-96822451D01*
X118110616Y-96865675D01*
X118113231Y-96874160D01*
X118138692Y-96915308D01*
X118170999Y-96935128D01*
X118217714Y-96954770D01*
X118217714Y-96903950D01*
X118203504Y-96830082D01*
X118161325Y-96762327D01*
X118139376Y-96739661D01*
X118089483Y-96710569D01*
X118026033Y-96697400D01*
X117960256Y-96700968D01*
G36*
X117470074Y-96699755D02*
X117404142Y-96724084D01*
X117350727Y-96767117D01*
X117329836Y-96797409D01*
X117307061Y-96852994D01*
X117307534Y-96893186D01*
X117331438Y-96920217D01*
X117340283Y-96924813D01*
X117378470Y-96939144D01*
X117397972Y-96935472D01*
X117404578Y-96911407D01*
X117404914Y-96898114D01*
X117417008Y-96849210D01*
X117448529Y-96814999D01*
X117492341Y-96798476D01*
X117541305Y-96802634D01*
X117581106Y-96824227D01*
X117594550Y-96836544D01*
X117604079Y-96851487D01*
X117610515Y-96874075D01*
X117614683Y-96909328D01*
X117617403Y-96962266D01*
X117619498Y-97037907D01*
X117620040Y-97061857D01*
X117622019Y-97143790D01*
X117624269Y-97201455D01*
X117627643Y-97239608D01*
X117632994Y-97263004D01*
X117641176Y-97276398D01*
X117653041Y-97284545D01*
X117660638Y-97288144D01*
X117692898Y-97300452D01*
X117711889Y-97304514D01*
X117718164Y-97290948D01*
X117721994Y-97249934D01*
X117723400Y-97180999D01*
X117722402Y-97083669D01*
X117722092Y-97068657D01*
X117719899Y-96979859D01*
X117717307Y-96915019D01*
X117713618Y-96869067D01*
X117708136Y-96836935D01*
X117700165Y-96813553D01*
X117689007Y-96793852D01*
X117683170Y-96785410D01*
X117649704Y-96748057D01*
X117612273Y-96719003D01*
X117607691Y-96716467D01*
X117540574Y-96696443D01*
X117470074Y-96699755D01*
X117470074Y-96699755D01*
G37*
X117470074Y-96699755D02*
X117404142Y-96724084D01*
X117350727Y-96767117D01*
X117329836Y-96797409D01*
X117307061Y-96852994D01*
X117307534Y-96893186D01*
X117331438Y-96920217D01*
X117340283Y-96924813D01*
X117378470Y-96939144D01*
X117397972Y-96935472D01*
X117404578Y-96911407D01*
X117404914Y-96898114D01*
X117417008Y-96849210D01*
X117448529Y-96814999D01*
X117492341Y-96798476D01*
X117541305Y-96802634D01*
X117581106Y-96824227D01*
X117594550Y-96836544D01*
X117604079Y-96851487D01*
X117610515Y-96874075D01*
X117614683Y-96909328D01*
X117617403Y-96962266D01*
X117619498Y-97037907D01*
X117620040Y-97061857D01*
X117622019Y-97143790D01*
X117624269Y-97201455D01*
X117627643Y-97239608D01*
X117632994Y-97263004D01*
X117641176Y-97276398D01*
X117653041Y-97284545D01*
X117660638Y-97288144D01*
X117692898Y-97300452D01*
X117711889Y-97304514D01*
X117718164Y-97290948D01*
X117721994Y-97249934D01*
X117723400Y-97180999D01*
X117722402Y-97083669D01*
X117722092Y-97068657D01*
X117719899Y-96979859D01*
X117717307Y-96915019D01*
X117713618Y-96869067D01*
X117708136Y-96836935D01*
X117700165Y-96813553D01*
X117689007Y-96793852D01*
X117683170Y-96785410D01*
X117649704Y-96748057D01*
X117612273Y-96719003D01*
X117607691Y-96716467D01*
X117540574Y-96696443D01*
X117470074Y-96699755D01*
G36*
X116809883Y-96815358D02*
X116810067Y-96923837D01*
X116810781Y-97007287D01*
X116812325Y-97069704D01*
X116814999Y-97115085D01*
X116819106Y-97147429D01*
X116824945Y-97170733D01*
X116832818Y-97188995D01*
X116838779Y-97199418D01*
X116888145Y-97255945D01*
X116950736Y-97291377D01*
X117019987Y-97304090D01*
X117089332Y-97292463D01*
X117130625Y-97271568D01*
X117173975Y-97235422D01*
X117203519Y-97191276D01*
X117221345Y-97133462D01*
X117229537Y-97056313D01*
X117230698Y-96999714D01*
X117230542Y-96995647D01*
X117129143Y-96995647D01*
X117128524Y-97060550D01*
X117125686Y-97103514D01*
X117119160Y-97131622D01*
X117107477Y-97151953D01*
X117093517Y-97167288D01*
X117046635Y-97196890D01*
X116996299Y-97199419D01*
X116948724Y-97174705D01*
X116945021Y-97171356D01*
X116929217Y-97153935D01*
X116919307Y-97133209D01*
X116913942Y-97102362D01*
X116911772Y-97054577D01*
X116911429Y-97001748D01*
X116912173Y-96935381D01*
X116915252Y-96891106D01*
X116921939Y-96862009D01*
X116933504Y-96841173D01*
X116942987Y-96830107D01*
X116987040Y-96802198D01*
X117037776Y-96798843D01*
X117086204Y-96820159D01*
X117095550Y-96828073D01*
X117111460Y-96845647D01*
X117121390Y-96866587D01*
X117126722Y-96897782D01*
X117128837Y-96946122D01*
X117129143Y-96995647D01*
X117230542Y-96995647D01*
X117227190Y-96908568D01*
X117215274Y-96840086D01*
X117192865Y-96788600D01*
X117157876Y-96748443D01*
X117130625Y-96727861D01*
X117081093Y-96705625D01*
X117023684Y-96695304D01*
X116970318Y-96698067D01*
X116940457Y-96709212D01*
X116928739Y-96712383D01*
X116920963Y-96700557D01*
X116915535Y-96668866D01*
X116911429Y-96620593D01*
X116906933Y-96566829D01*
X116900687Y-96534482D01*
X116889324Y-96515985D01*
X116869472Y-96503770D01*
X116857000Y-96498362D01*
X116809829Y-96478601D01*
X116809883Y-96815358D01*
X116809883Y-96815358D01*
G37*
X116809883Y-96815358D02*
X116810067Y-96923837D01*
X116810781Y-97007287D01*
X116812325Y-97069704D01*
X116814999Y-97115085D01*
X116819106Y-97147429D01*
X116824945Y-97170733D01*
X116832818Y-97188995D01*
X116838779Y-97199418D01*
X116888145Y-97255945D01*
X116950736Y-97291377D01*
X117019987Y-97304090D01*
X117089332Y-97292463D01*
X117130625Y-97271568D01*
X117173975Y-97235422D01*
X117203519Y-97191276D01*
X117221345Y-97133462D01*
X117229537Y-97056313D01*
X117230698Y-96999714D01*
X117230542Y-96995647D01*
X117129143Y-96995647D01*
X117128524Y-97060550D01*
X117125686Y-97103514D01*
X117119160Y-97131622D01*
X117107477Y-97151953D01*
X117093517Y-97167288D01*
X117046635Y-97196890D01*
X116996299Y-97199419D01*
X116948724Y-97174705D01*
X116945021Y-97171356D01*
X116929217Y-97153935D01*
X116919307Y-97133209D01*
X116913942Y-97102362D01*
X116911772Y-97054577D01*
X116911429Y-97001748D01*
X116912173Y-96935381D01*
X116915252Y-96891106D01*
X116921939Y-96862009D01*
X116933504Y-96841173D01*
X116942987Y-96830107D01*
X116987040Y-96802198D01*
X117037776Y-96798843D01*
X117086204Y-96820159D01*
X117095550Y-96828073D01*
X117111460Y-96845647D01*
X117121390Y-96866587D01*
X117126722Y-96897782D01*
X117128837Y-96946122D01*
X117129143Y-96995647D01*
X117230542Y-96995647D01*
X117227190Y-96908568D01*
X117215274Y-96840086D01*
X117192865Y-96788600D01*
X117157876Y-96748443D01*
X117130625Y-96727861D01*
X117081093Y-96705625D01*
X117023684Y-96695304D01*
X116970318Y-96698067D01*
X116940457Y-96709212D01*
X116928739Y-96712383D01*
X116920963Y-96700557D01*
X116915535Y-96668866D01*
X116911429Y-96620593D01*
X116906933Y-96566829D01*
X116900687Y-96534482D01*
X116889324Y-96515985D01*
X116869472Y-96503770D01*
X116857000Y-96498362D01*
X116809829Y-96478601D01*
X116809883Y-96815358D01*
G36*
X116220167Y-96708663D02*
X116217952Y-96746850D01*
X116216216Y-96804886D01*
X116215101Y-96878180D01*
X116214743Y-96955055D01*
X116214743Y-97215196D01*
X116260674Y-97261127D01*
X116292325Y-97289429D01*
X116320110Y-97300893D01*
X116358085Y-97300168D01*
X116373160Y-97298321D01*
X116420274Y-97292948D01*
X116459244Y-97289869D01*
X116468743Y-97289585D01*
X116500767Y-97291445D01*
X116546568Y-97296114D01*
X116564326Y-97298321D01*
X116607943Y-97301735D01*
X116637255Y-97294320D01*
X116666320Y-97271427D01*
X116676812Y-97261127D01*
X116722743Y-97215196D01*
X116722743Y-96728602D01*
X116685774Y-96711758D01*
X116653941Y-96699282D01*
X116635317Y-96694914D01*
X116630542Y-96708718D01*
X116626079Y-96747286D01*
X116622225Y-96806356D01*
X116619278Y-96881663D01*
X116617857Y-96945286D01*
X116613886Y-97195657D01*
X116579241Y-97200556D01*
X116547732Y-97197131D01*
X116532292Y-97186041D01*
X116527977Y-97165308D01*
X116524292Y-97121145D01*
X116521531Y-97059146D01*
X116519988Y-96984909D01*
X116519765Y-96946706D01*
X116519543Y-96726783D01*
X116473834Y-96710849D01*
X116441482Y-96700015D01*
X116423885Y-96694962D01*
X116423377Y-96694914D01*
X116421612Y-96708648D01*
X116419671Y-96746730D01*
X116417718Y-96804482D01*
X116415916Y-96877227D01*
X116414657Y-96945286D01*
X116410686Y-97195657D01*
X116323600Y-97195657D01*
X116319604Y-96967240D01*
X116315608Y-96738822D01*
X116273153Y-96716868D01*
X116241808Y-96701793D01*
X116223256Y-96694951D01*
X116222721Y-96694914D01*
X116220167Y-96708663D01*
X116220167Y-96708663D01*
G37*
X116220167Y-96708663D02*
X116217952Y-96746850D01*
X116216216Y-96804886D01*
X116215101Y-96878180D01*
X116214743Y-96955055D01*
X116214743Y-97215196D01*
X116260674Y-97261127D01*
X116292325Y-97289429D01*
X116320110Y-97300893D01*
X116358085Y-97300168D01*
X116373160Y-97298321D01*
X116420274Y-97292948D01*
X116459244Y-97289869D01*
X116468743Y-97289585D01*
X116500767Y-97291445D01*
X116546568Y-97296114D01*
X116564326Y-97298321D01*
X116607943Y-97301735D01*
X116637255Y-97294320D01*
X116666320Y-97271427D01*
X116676812Y-97261127D01*
X116722743Y-97215196D01*
X116722743Y-96728602D01*
X116685774Y-96711758D01*
X116653941Y-96699282D01*
X116635317Y-96694914D01*
X116630542Y-96708718D01*
X116626079Y-96747286D01*
X116622225Y-96806356D01*
X116619278Y-96881663D01*
X116617857Y-96945286D01*
X116613886Y-97195657D01*
X116579241Y-97200556D01*
X116547732Y-97197131D01*
X116532292Y-97186041D01*
X116527977Y-97165308D01*
X116524292Y-97121145D01*
X116521531Y-97059146D01*
X116519988Y-96984909D01*
X116519765Y-96946706D01*
X116519543Y-96726783D01*
X116473834Y-96710849D01*
X116441482Y-96700015D01*
X116423885Y-96694962D01*
X116423377Y-96694914D01*
X116421612Y-96708648D01*
X116419671Y-96746730D01*
X116417718Y-96804482D01*
X116415916Y-96877227D01*
X116414657Y-96945286D01*
X116410686Y-97195657D01*
X116323600Y-97195657D01*
X116319604Y-96967240D01*
X116315608Y-96738822D01*
X116273153Y-96716868D01*
X116241808Y-96701793D01*
X116223256Y-96694951D01*
X116222721Y-96694914D01*
X116220167Y-96708663D01*
G36*
X115855124Y-96706335D02*
X115813333Y-96725344D01*
X115780531Y-96748378D01*
X115756497Y-96774133D01*
X115739903Y-96807358D01*
X115729423Y-96852800D01*
X115723729Y-96915207D01*
X115721493Y-96999327D01*
X115721257Y-97054721D01*
X115721257Y-97270826D01*
X115758226Y-97287670D01*
X115787344Y-97299981D01*
X115801769Y-97304514D01*
X115804528Y-97291025D01*
X115806718Y-97254653D01*
X115808058Y-97201542D01*
X115808343Y-97159372D01*
X115809566Y-97098447D01*
X115812864Y-97050115D01*
X115817679Y-97020518D01*
X115821504Y-97014229D01*
X115847217Y-97020652D01*
X115887582Y-97037125D01*
X115934321Y-97059458D01*
X115979155Y-97083457D01*
X116013807Y-97104930D01*
X116029998Y-97119685D01*
X116030062Y-97119845D01*
X116028670Y-97147152D01*
X116016182Y-97173219D01*
X115994257Y-97194392D01*
X115962257Y-97201474D01*
X115934908Y-97200649D01*
X115896174Y-97200042D01*
X115875842Y-97209116D01*
X115863631Y-97233092D01*
X115862091Y-97237613D01*
X115856797Y-97271806D01*
X115870953Y-97292568D01*
X115907852Y-97302462D01*
X115947711Y-97304292D01*
X116019438Y-97290727D01*
X116056568Y-97271355D01*
X116102424Y-97225845D01*
X116126744Y-97169983D01*
X116128927Y-97110957D01*
X116108371Y-97055953D01*
X116077451Y-97021486D01*
X116046580Y-97002189D01*
X115998058Y-96977759D01*
X115941515Y-96952985D01*
X115932090Y-96949199D01*
X115869981Y-96921791D01*
X115834178Y-96897634D01*
X115822663Y-96873619D01*
X115833420Y-96846635D01*
X115851886Y-96825543D01*
X115895531Y-96799572D01*
X115943554Y-96797624D01*
X115987594Y-96817637D01*
X116019291Y-96857551D01*
X116023451Y-96867848D01*
X116047673Y-96905724D01*
X116083035Y-96933842D01*
X116127657Y-96956917D01*
X116127657Y-96891485D01*
X116125031Y-96851506D01*
X116113770Y-96819997D01*
X116088801Y-96786378D01*
X116064831Y-96760484D01*
X116027559Y-96723817D01*
X115998599Y-96704121D01*
X115967495Y-96696220D01*
X115932287Y-96694914D01*
X115855124Y-96706335D01*
X115855124Y-96706335D01*
G37*
X115855124Y-96706335D02*
X115813333Y-96725344D01*
X115780531Y-96748378D01*
X115756497Y-96774133D01*
X115739903Y-96807358D01*
X115729423Y-96852800D01*
X115723729Y-96915207D01*
X115721493Y-96999327D01*
X115721257Y-97054721D01*
X115721257Y-97270826D01*
X115758226Y-97287670D01*
X115787344Y-97299981D01*
X115801769Y-97304514D01*
X115804528Y-97291025D01*
X115806718Y-97254653D01*
X115808058Y-97201542D01*
X115808343Y-97159372D01*
X115809566Y-97098447D01*
X115812864Y-97050115D01*
X115817679Y-97020518D01*
X115821504Y-97014229D01*
X115847217Y-97020652D01*
X115887582Y-97037125D01*
X115934321Y-97059458D01*
X115979155Y-97083457D01*
X116013807Y-97104930D01*
X116029998Y-97119685D01*
X116030062Y-97119845D01*
X116028670Y-97147152D01*
X116016182Y-97173219D01*
X115994257Y-97194392D01*
X115962257Y-97201474D01*
X115934908Y-97200649D01*
X115896174Y-97200042D01*
X115875842Y-97209116D01*
X115863631Y-97233092D01*
X115862091Y-97237613D01*
X115856797Y-97271806D01*
X115870953Y-97292568D01*
X115907852Y-97302462D01*
X115947711Y-97304292D01*
X116019438Y-97290727D01*
X116056568Y-97271355D01*
X116102424Y-97225845D01*
X116126744Y-97169983D01*
X116128927Y-97110957D01*
X116108371Y-97055953D01*
X116077451Y-97021486D01*
X116046580Y-97002189D01*
X115998058Y-96977759D01*
X115941515Y-96952985D01*
X115932090Y-96949199D01*
X115869981Y-96921791D01*
X115834178Y-96897634D01*
X115822663Y-96873619D01*
X115833420Y-96846635D01*
X115851886Y-96825543D01*
X115895531Y-96799572D01*
X115943554Y-96797624D01*
X115987594Y-96817637D01*
X116019291Y-96857551D01*
X116023451Y-96867848D01*
X116047673Y-96905724D01*
X116083035Y-96933842D01*
X116127657Y-96956917D01*
X116127657Y-96891485D01*
X116125031Y-96851506D01*
X116113770Y-96819997D01*
X116088801Y-96786378D01*
X116064831Y-96760484D01*
X116027559Y-96723817D01*
X115998599Y-96704121D01*
X115967495Y-96696220D01*
X115932287Y-96694914D01*
X115855124Y-96706335D01*
G36*
X115347400Y-96708752D02*
X115330052Y-96716334D01*
X115288644Y-96749128D01*
X115253235Y-96796547D01*
X115231336Y-96847151D01*
X115227771Y-96872098D01*
X115239721Y-96906927D01*
X115265933Y-96925357D01*
X115294036Y-96936516D01*
X115306905Y-96938572D01*
X115313171Y-96923649D01*
X115325544Y-96891175D01*
X115330972Y-96876502D01*
X115361410Y-96825744D01*
X115405480Y-96800427D01*
X115461990Y-96801206D01*
X115466175Y-96802203D01*
X115496345Y-96816507D01*
X115518524Y-96844393D01*
X115533673Y-96889287D01*
X115542750Y-96954615D01*
X115546714Y-97043804D01*
X115547086Y-97091261D01*
X115547270Y-97166071D01*
X115548478Y-97217069D01*
X115551691Y-97249471D01*
X115557891Y-97268495D01*
X115568060Y-97279356D01*
X115583181Y-97287272D01*
X115584054Y-97287670D01*
X115613172Y-97299981D01*
X115627597Y-97304514D01*
X115629814Y-97290809D01*
X115631711Y-97252925D01*
X115633153Y-97195715D01*
X115634002Y-97124027D01*
X115634171Y-97071565D01*
X115633308Y-96970047D01*
X115629930Y-96893032D01*
X115622858Y-96836023D01*
X115610912Y-96794526D01*
X115592910Y-96764043D01*
X115567673Y-96740080D01*
X115542753Y-96723355D01*
X115482829Y-96701097D01*
X115413089Y-96696076D01*
X115347400Y-96708752D01*
X115347400Y-96708752D01*
G37*
X115347400Y-96708752D02*
X115330052Y-96716334D01*
X115288644Y-96749128D01*
X115253235Y-96796547D01*
X115231336Y-96847151D01*
X115227771Y-96872098D01*
X115239721Y-96906927D01*
X115265933Y-96925357D01*
X115294036Y-96936516D01*
X115306905Y-96938572D01*
X115313171Y-96923649D01*
X115325544Y-96891175D01*
X115330972Y-96876502D01*
X115361410Y-96825744D01*
X115405480Y-96800427D01*
X115461990Y-96801206D01*
X115466175Y-96802203D01*
X115496345Y-96816507D01*
X115518524Y-96844393D01*
X115533673Y-96889287D01*
X115542750Y-96954615D01*
X115546714Y-97043804D01*
X115547086Y-97091261D01*
X115547270Y-97166071D01*
X115548478Y-97217069D01*
X115551691Y-97249471D01*
X115557891Y-97268495D01*
X115568060Y-97279356D01*
X115583181Y-97287272D01*
X115584054Y-97287670D01*
X115613172Y-97299981D01*
X115627597Y-97304514D01*
X115629814Y-97290809D01*
X115631711Y-97252925D01*
X115633153Y-97195715D01*
X115634002Y-97124027D01*
X115634171Y-97071565D01*
X115633308Y-96970047D01*
X115629930Y-96893032D01*
X115622858Y-96836023D01*
X115610912Y-96794526D01*
X115592910Y-96764043D01*
X115567673Y-96740080D01*
X115542753Y-96723355D01*
X115482829Y-96701097D01*
X115413089Y-96696076D01*
X115347400Y-96708752D01*
G36*
X114846405Y-96716966D02*
X114788979Y-96754497D01*
X114761281Y-96788096D01*
X114739338Y-96849064D01*
X114737595Y-96897308D01*
X114741543Y-96961816D01*
X114890314Y-97026934D01*
X114962651Y-97060202D01*
X115009916Y-97086964D01*
X115034493Y-97110144D01*
X115038763Y-97132667D01*
X115025111Y-97157455D01*
X115010057Y-97173886D01*
X114966254Y-97200235D01*
X114918611Y-97202081D01*
X114874855Y-97181546D01*
X114842711Y-97140752D01*
X114836962Y-97126347D01*
X114809424Y-97081356D01*
X114777742Y-97062182D01*
X114734286Y-97045779D01*
X114734286Y-97107966D01*
X114738128Y-97150283D01*
X114753177Y-97185969D01*
X114784720Y-97226943D01*
X114789408Y-97232267D01*
X114824494Y-97268720D01*
X114854653Y-97288283D01*
X114892385Y-97297283D01*
X114923665Y-97300230D01*
X114979615Y-97300965D01*
X115019445Y-97291660D01*
X115044292Y-97277846D01*
X115083344Y-97247467D01*
X115110375Y-97214613D01*
X115127483Y-97173294D01*
X115136762Y-97117521D01*
X115140307Y-97041305D01*
X115140590Y-97002622D01*
X115139628Y-96956247D01*
X115051993Y-96956247D01*
X115050977Y-96981126D01*
X115048444Y-96985200D01*
X115031726Y-96979665D01*
X114995751Y-96965017D01*
X114947669Y-96944190D01*
X114937614Y-96939714D01*
X114876848Y-96908814D01*
X114843368Y-96881657D01*
X114836010Y-96856220D01*
X114853609Y-96830481D01*
X114868144Y-96819109D01*
X114920590Y-96796364D01*
X114969678Y-96800122D01*
X115010773Y-96827884D01*
X115039242Y-96877152D01*
X115048369Y-96916257D01*
X115051993Y-96956247D01*
X115139628Y-96956247D01*
X115138715Y-96912249D01*
X115131804Y-96845384D01*
X115118116Y-96796695D01*
X115095904Y-96760849D01*
X115063426Y-96732513D01*
X115049267Y-96723355D01*
X114984947Y-96699507D01*
X114914527Y-96698006D01*
X114846405Y-96716966D01*
X114846405Y-96716966D01*
G37*
X114846405Y-96716966D02*
X114788979Y-96754497D01*
X114761281Y-96788096D01*
X114739338Y-96849064D01*
X114737595Y-96897308D01*
X114741543Y-96961816D01*
X114890314Y-97026934D01*
X114962651Y-97060202D01*
X115009916Y-97086964D01*
X115034493Y-97110144D01*
X115038763Y-97132667D01*
X115025111Y-97157455D01*
X115010057Y-97173886D01*
X114966254Y-97200235D01*
X114918611Y-97202081D01*
X114874855Y-97181546D01*
X114842711Y-97140752D01*
X114836962Y-97126347D01*
X114809424Y-97081356D01*
X114777742Y-97062182D01*
X114734286Y-97045779D01*
X114734286Y-97107966D01*
X114738128Y-97150283D01*
X114753177Y-97185969D01*
X114784720Y-97226943D01*
X114789408Y-97232267D01*
X114824494Y-97268720D01*
X114854653Y-97288283D01*
X114892385Y-97297283D01*
X114923665Y-97300230D01*
X114979615Y-97300965D01*
X115019445Y-97291660D01*
X115044292Y-97277846D01*
X115083344Y-97247467D01*
X115110375Y-97214613D01*
X115127483Y-97173294D01*
X115136762Y-97117521D01*
X115140307Y-97041305D01*
X115140590Y-97002622D01*
X115139628Y-96956247D01*
X115051993Y-96956247D01*
X115050977Y-96981126D01*
X115048444Y-96985200D01*
X115031726Y-96979665D01*
X114995751Y-96965017D01*
X114947669Y-96944190D01*
X114937614Y-96939714D01*
X114876848Y-96908814D01*
X114843368Y-96881657D01*
X114836010Y-96856220D01*
X114853609Y-96830481D01*
X114868144Y-96819109D01*
X114920590Y-96796364D01*
X114969678Y-96800122D01*
X115010773Y-96827884D01*
X115039242Y-96877152D01*
X115048369Y-96916257D01*
X115051993Y-96956247D01*
X115139628Y-96956247D01*
X115138715Y-96912249D01*
X115131804Y-96845384D01*
X115118116Y-96796695D01*
X115095904Y-96760849D01*
X115063426Y-96732513D01*
X115049267Y-96723355D01*
X114984947Y-96699507D01*
X114914527Y-96698006D01*
X114846405Y-96716966D01*
G36*
X117896090Y-91992348D02*
X117817546Y-91992778D01*
X117760702Y-91993942D01*
X117721895Y-91996207D01*
X117697462Y-91999940D01*
X117683738Y-92005506D01*
X117677060Y-92013273D01*
X117673764Y-92023605D01*
X117673444Y-92024943D01*
X117668438Y-92049079D01*
X117659171Y-92096701D01*
X117646608Y-92162741D01*
X117631713Y-92242128D01*
X117615449Y-92329796D01*
X117614881Y-92332875D01*
X117598590Y-92418789D01*
X117583348Y-92494696D01*
X117570139Y-92556045D01*
X117559946Y-92598282D01*
X117553752Y-92616855D01*
X117553457Y-92617184D01*
X117535212Y-92626253D01*
X117497595Y-92641367D01*
X117448729Y-92659262D01*
X117448457Y-92659358D01*
X117386907Y-92682493D01*
X117314343Y-92711965D01*
X117245943Y-92741597D01*
X117242706Y-92743062D01*
X117131298Y-92793626D01*
X116884601Y-92625160D01*
X116808923Y-92573803D01*
X116740369Y-92527889D01*
X116682912Y-92490030D01*
X116640524Y-92462837D01*
X116617175Y-92448921D01*
X116614958Y-92447889D01*
X116597990Y-92452484D01*
X116566299Y-92474655D01*
X116518648Y-92515447D01*
X116453802Y-92575905D01*
X116387603Y-92640227D01*
X116323786Y-92703612D01*
X116266671Y-92761451D01*
X116219695Y-92810175D01*
X116186297Y-92846210D01*
X116169915Y-92865984D01*
X116169306Y-92867002D01*
X116167495Y-92880572D01*
X116174317Y-92902733D01*
X116191460Y-92936478D01*
X116220607Y-92984800D01*
X116263445Y-93050692D01*
X116320552Y-93135517D01*
X116371234Y-93210177D01*
X116416539Y-93277140D01*
X116453850Y-93332516D01*
X116480548Y-93372420D01*
X116494015Y-93392962D01*
X116494863Y-93394356D01*
X116493219Y-93414038D01*
X116480755Y-93452293D01*
X116459952Y-93501889D01*
X116452538Y-93517728D01*
X116420186Y-93588290D01*
X116385672Y-93668353D01*
X116357635Y-93737629D01*
X116337432Y-93789045D01*
X116321385Y-93828119D01*
X116312112Y-93848541D01*
X116310959Y-93850114D01*
X116293904Y-93852721D01*
X116253702Y-93859863D01*
X116195698Y-93870523D01*
X116125237Y-93883685D01*
X116047665Y-93898333D01*
X115968328Y-93913449D01*
X115892569Y-93928018D01*
X115825736Y-93941022D01*
X115773172Y-93951445D01*
X115740224Y-93958270D01*
X115732143Y-93960199D01*
X115723795Y-93964962D01*
X115717494Y-93975718D01*
X115712955Y-93996098D01*
X115709896Y-94029734D01*
X115708033Y-94080255D01*
X115707082Y-94151292D01*
X115706760Y-94246476D01*
X115706743Y-94285492D01*
X115706743Y-94602799D01*
X115782943Y-94617839D01*
X115825337Y-94625995D01*
X115888600Y-94637899D01*
X115965038Y-94652116D01*
X116046957Y-94667210D01*
X116069600Y-94671355D01*
X116145194Y-94686053D01*
X116211047Y-94700505D01*
X116261634Y-94713375D01*
X116291426Y-94723322D01*
X116296388Y-94726287D01*
X116308574Y-94747283D01*
X116326047Y-94787967D01*
X116345423Y-94840322D01*
X116349266Y-94851600D01*
X116374661Y-94921523D01*
X116406183Y-95000418D01*
X116437031Y-95071266D01*
X116437183Y-95071595D01*
X116488553Y-95182733D01*
X116319601Y-95431253D01*
X116150648Y-95679772D01*
X116367571Y-95897058D01*
X116433181Y-95961726D01*
X116493021Y-96018733D01*
X116543733Y-96065033D01*
X116581954Y-96097584D01*
X116604325Y-96113343D01*
X116607534Y-96114343D01*
X116626374Y-96106469D01*
X116664820Y-96084578D01*
X116718670Y-96051267D01*
X116783724Y-96009131D01*
X116854060Y-95961943D01*
X116925445Y-95913810D01*
X116989092Y-95871928D01*
X117040959Y-95838871D01*
X117077005Y-95817218D01*
X117093133Y-95809543D01*
X117112811Y-95816037D01*
X117150125Y-95833150D01*
X117197379Y-95857326D01*
X117202388Y-95860013D01*
X117266023Y-95891927D01*
X117309659Y-95907579D01*
X117336798Y-95907745D01*
X117350943Y-95893204D01*
X117351025Y-95893000D01*
X117358095Y-95875779D01*
X117374958Y-95834899D01*
X117400305Y-95773525D01*
X117432829Y-95694819D01*
X117471222Y-95601947D01*
X117514178Y-95498072D01*
X117555778Y-95397502D01*
X117601496Y-95286516D01*
X117643474Y-95183703D01*
X117680452Y-95092215D01*
X117711173Y-95015201D01*
X117734378Y-94955815D01*
X117748810Y-94917209D01*
X117753257Y-94902800D01*
X117742104Y-94886272D01*
X117712931Y-94859930D01*
X117674029Y-94830887D01*
X117563243Y-94739039D01*
X117476649Y-94633759D01*
X117415284Y-94517266D01*
X117380185Y-94391776D01*
X117372392Y-94259507D01*
X117378057Y-94198457D01*
X117408922Y-94071795D01*
X117462080Y-93959941D01*
X117534233Y-93864001D01*
X117622083Y-93785076D01*
X117722335Y-93724270D01*
X117831690Y-93682687D01*
X117946853Y-93661428D01*
X118064525Y-93661599D01*
X118181410Y-93684301D01*
X118294211Y-93730638D01*
X118399631Y-93801713D01*
X118443632Y-93841911D01*
X118528021Y-93945129D01*
X118586778Y-94057925D01*
X118620296Y-94177010D01*
X118628965Y-94299095D01*
X118613177Y-94420893D01*
X118573322Y-94539116D01*
X118509793Y-94650475D01*
X118422979Y-94751684D01*
X118325971Y-94830887D01*
X118285563Y-94861162D01*
X118257018Y-94887219D01*
X118246743Y-94902825D01*
X118252123Y-94919843D01*
X118267425Y-94960500D01*
X118291388Y-95021642D01*
X118322756Y-95100119D01*
X118360268Y-95192780D01*
X118402667Y-95296472D01*
X118444337Y-95397526D01*
X118490310Y-95508607D01*
X118532893Y-95611541D01*
X118570779Y-95703165D01*
X118602660Y-95780316D01*
X118627229Y-95839831D01*
X118643180Y-95878544D01*
X118649090Y-95893000D01*
X118663052Y-95907685D01*
X118690060Y-95907642D01*
X118733587Y-95892099D01*
X118797110Y-95860284D01*
X118797612Y-95860013D01*
X118845440Y-95835323D01*
X118884103Y-95817338D01*
X118905905Y-95809614D01*
X118906867Y-95809543D01*
X118923279Y-95817378D01*
X118959513Y-95839165D01*
X119011526Y-95872328D01*
X119075275Y-95914291D01*
X119145940Y-95961943D01*
X119217884Y-96010191D01*
X119282726Y-96052151D01*
X119336265Y-96085227D01*
X119374303Y-96106821D01*
X119392467Y-96114343D01*
X119409192Y-96104457D01*
X119442820Y-96076826D01*
X119489990Y-96034495D01*
X119547342Y-95980505D01*
X119611516Y-95917899D01*
X119632503Y-95896983D01*
X119849501Y-95679623D01*
X119684332Y-95437220D01*
X119634136Y-95362781D01*
X119590081Y-95295972D01*
X119554638Y-95240665D01*
X119530281Y-95200729D01*
X119519478Y-95180036D01*
X119519162Y-95178563D01*
X119524857Y-95159058D01*
X119540174Y-95119822D01*
X119562463Y-95067430D01*
X119578107Y-95032355D01*
X119607359Y-94965201D01*
X119634906Y-94897358D01*
X119656263Y-94840034D01*
X119662065Y-94822572D01*
X119678548Y-94775938D01*
X119694660Y-94739905D01*
X119703510Y-94726287D01*
X119723040Y-94717952D01*
X119765666Y-94706137D01*
X119825855Y-94692181D01*
X119898078Y-94677422D01*
X119930400Y-94671355D01*
X120012478Y-94656273D01*
X120091205Y-94641669D01*
X120158891Y-94628980D01*
X120207840Y-94619642D01*
X120217057Y-94617839D01*
X120293257Y-94602799D01*
X120293257Y-94285492D01*
X120293086Y-94181154D01*
X120292384Y-94102213D01*
X120290866Y-94045038D01*
X120288251Y-94005999D01*
X120284254Y-93981465D01*
X120278591Y-93967805D01*
X120270980Y-93961389D01*
X120267857Y-93960199D01*
X120249022Y-93955980D01*
X120207412Y-93947562D01*
X120148370Y-93935961D01*
X120077243Y-93922195D01*
X119999375Y-93907280D01*
X119920113Y-93892232D01*
X119844802Y-93878069D01*
X119778787Y-93865806D01*
X119727413Y-93856461D01*
X119696025Y-93851050D01*
X119689041Y-93850114D01*
X119682715Y-93837596D01*
X119668710Y-93804246D01*
X119649645Y-93756377D01*
X119642366Y-93737629D01*
X119613004Y-93665195D01*
X119578429Y-93585170D01*
X119547463Y-93517728D01*
X119524677Y-93466159D01*
X119509518Y-93423785D01*
X119504458Y-93397834D01*
X119505264Y-93394356D01*
X119515959Y-93377936D01*
X119540380Y-93341417D01*
X119575905Y-93288687D01*
X119619913Y-93223635D01*
X119669783Y-93150151D01*
X119679644Y-93135645D01*
X119737508Y-93049704D01*
X119780044Y-92984261D01*
X119808946Y-92936304D01*
X119825910Y-92902820D01*
X119832633Y-92880795D01*
X119830810Y-92867217D01*
X119830764Y-92867131D01*
X119816414Y-92849297D01*
X119784677Y-92814817D01*
X119738990Y-92767268D01*
X119682796Y-92710222D01*
X119619532Y-92647255D01*
X119612398Y-92640227D01*
X119532670Y-92563020D01*
X119471143Y-92506330D01*
X119426579Y-92469110D01*
X119397743Y-92450315D01*
X119385042Y-92447889D01*
X119366506Y-92458471D01*
X119328039Y-92482916D01*
X119273614Y-92518612D01*
X119207202Y-92562947D01*
X119132775Y-92613311D01*
X119115399Y-92625160D01*
X118868703Y-92793626D01*
X118757294Y-92743062D01*
X118689543Y-92713595D01*
X118616817Y-92683959D01*
X118554297Y-92660330D01*
X118551543Y-92659358D01*
X118502640Y-92641457D01*
X118464943Y-92626320D01*
X118446575Y-92617210D01*
X118446544Y-92617184D01*
X118440715Y-92600717D01*
X118430808Y-92560219D01*
X118417805Y-92500242D01*
X118402691Y-92425340D01*
X118386448Y-92340064D01*
X118385119Y-92332875D01*
X118368825Y-92245014D01*
X118353867Y-92165260D01*
X118341209Y-92098681D01*
X118331814Y-92050347D01*
X118326646Y-92025325D01*
X118326556Y-92024943D01*
X118323411Y-92014299D01*
X118317296Y-92006262D01*
X118304547Y-92000467D01*
X118281500Y-91996547D01*
X118244491Y-91994135D01*
X118189856Y-91992865D01*
X118113933Y-91992371D01*
X118013056Y-91992286D01*
X118000000Y-91992286D01*
X117896090Y-91992348D01*
X117896090Y-91992348D01*
G37*
X117896090Y-91992348D02*
X117817546Y-91992778D01*
X117760702Y-91993942D01*
X117721895Y-91996207D01*
X117697462Y-91999940D01*
X117683738Y-92005506D01*
X117677060Y-92013273D01*
X117673764Y-92023605D01*
X117673444Y-92024943D01*
X117668438Y-92049079D01*
X117659171Y-92096701D01*
X117646608Y-92162741D01*
X117631713Y-92242128D01*
X117615449Y-92329796D01*
X117614881Y-92332875D01*
X117598590Y-92418789D01*
X117583348Y-92494696D01*
X117570139Y-92556045D01*
X117559946Y-92598282D01*
X117553752Y-92616855D01*
X117553457Y-92617184D01*
X117535212Y-92626253D01*
X117497595Y-92641367D01*
X117448729Y-92659262D01*
X117448457Y-92659358D01*
X117386907Y-92682493D01*
X117314343Y-92711965D01*
X117245943Y-92741597D01*
X117242706Y-92743062D01*
X117131298Y-92793626D01*
X116884601Y-92625160D01*
X116808923Y-92573803D01*
X116740369Y-92527889D01*
X116682912Y-92490030D01*
X116640524Y-92462837D01*
X116617175Y-92448921D01*
X116614958Y-92447889D01*
X116597990Y-92452484D01*
X116566299Y-92474655D01*
X116518648Y-92515447D01*
X116453802Y-92575905D01*
X116387603Y-92640227D01*
X116323786Y-92703612D01*
X116266671Y-92761451D01*
X116219695Y-92810175D01*
X116186297Y-92846210D01*
X116169915Y-92865984D01*
X116169306Y-92867002D01*
X116167495Y-92880572D01*
X116174317Y-92902733D01*
X116191460Y-92936478D01*
X116220607Y-92984800D01*
X116263445Y-93050692D01*
X116320552Y-93135517D01*
X116371234Y-93210177D01*
X116416539Y-93277140D01*
X116453850Y-93332516D01*
X116480548Y-93372420D01*
X116494015Y-93392962D01*
X116494863Y-93394356D01*
X116493219Y-93414038D01*
X116480755Y-93452293D01*
X116459952Y-93501889D01*
X116452538Y-93517728D01*
X116420186Y-93588290D01*
X116385672Y-93668353D01*
X116357635Y-93737629D01*
X116337432Y-93789045D01*
X116321385Y-93828119D01*
X116312112Y-93848541D01*
X116310959Y-93850114D01*
X116293904Y-93852721D01*
X116253702Y-93859863D01*
X116195698Y-93870523D01*
X116125237Y-93883685D01*
X116047665Y-93898333D01*
X115968328Y-93913449D01*
X115892569Y-93928018D01*
X115825736Y-93941022D01*
X115773172Y-93951445D01*
X115740224Y-93958270D01*
X115732143Y-93960199D01*
X115723795Y-93964962D01*
X115717494Y-93975718D01*
X115712955Y-93996098D01*
X115709896Y-94029734D01*
X115708033Y-94080255D01*
X115707082Y-94151292D01*
X115706760Y-94246476D01*
X115706743Y-94285492D01*
X115706743Y-94602799D01*
X115782943Y-94617839D01*
X115825337Y-94625995D01*
X115888600Y-94637899D01*
X115965038Y-94652116D01*
X116046957Y-94667210D01*
X116069600Y-94671355D01*
X116145194Y-94686053D01*
X116211047Y-94700505D01*
X116261634Y-94713375D01*
X116291426Y-94723322D01*
X116296388Y-94726287D01*
X116308574Y-94747283D01*
X116326047Y-94787967D01*
X116345423Y-94840322D01*
X116349266Y-94851600D01*
X116374661Y-94921523D01*
X116406183Y-95000418D01*
X116437031Y-95071266D01*
X116437183Y-95071595D01*
X116488553Y-95182733D01*
X116319601Y-95431253D01*
X116150648Y-95679772D01*
X116367571Y-95897058D01*
X116433181Y-95961726D01*
X116493021Y-96018733D01*
X116543733Y-96065033D01*
X116581954Y-96097584D01*
X116604325Y-96113343D01*
X116607534Y-96114343D01*
X116626374Y-96106469D01*
X116664820Y-96084578D01*
X116718670Y-96051267D01*
X116783724Y-96009131D01*
X116854060Y-95961943D01*
X116925445Y-95913810D01*
X116989092Y-95871928D01*
X117040959Y-95838871D01*
X117077005Y-95817218D01*
X117093133Y-95809543D01*
X117112811Y-95816037D01*
X117150125Y-95833150D01*
X117197379Y-95857326D01*
X117202388Y-95860013D01*
X117266023Y-95891927D01*
X117309659Y-95907579D01*
X117336798Y-95907745D01*
X117350943Y-95893204D01*
X117351025Y-95893000D01*
X117358095Y-95875779D01*
X117374958Y-95834899D01*
X117400305Y-95773525D01*
X117432829Y-95694819D01*
X117471222Y-95601947D01*
X117514178Y-95498072D01*
X117555778Y-95397502D01*
X117601496Y-95286516D01*
X117643474Y-95183703D01*
X117680452Y-95092215D01*
X117711173Y-95015201D01*
X117734378Y-94955815D01*
X117748810Y-94917209D01*
X117753257Y-94902800D01*
X117742104Y-94886272D01*
X117712931Y-94859930D01*
X117674029Y-94830887D01*
X117563243Y-94739039D01*
X117476649Y-94633759D01*
X117415284Y-94517266D01*
X117380185Y-94391776D01*
X117372392Y-94259507D01*
X117378057Y-94198457D01*
X117408922Y-94071795D01*
X117462080Y-93959941D01*
X117534233Y-93864001D01*
X117622083Y-93785076D01*
X117722335Y-93724270D01*
X117831690Y-93682687D01*
X117946853Y-93661428D01*
X118064525Y-93661599D01*
X118181410Y-93684301D01*
X118294211Y-93730638D01*
X118399631Y-93801713D01*
X118443632Y-93841911D01*
X118528021Y-93945129D01*
X118586778Y-94057925D01*
X118620296Y-94177010D01*
X118628965Y-94299095D01*
X118613177Y-94420893D01*
X118573322Y-94539116D01*
X118509793Y-94650475D01*
X118422979Y-94751684D01*
X118325971Y-94830887D01*
X118285563Y-94861162D01*
X118257018Y-94887219D01*
X118246743Y-94902825D01*
X118252123Y-94919843D01*
X118267425Y-94960500D01*
X118291388Y-95021642D01*
X118322756Y-95100119D01*
X118360268Y-95192780D01*
X118402667Y-95296472D01*
X118444337Y-95397526D01*
X118490310Y-95508607D01*
X118532893Y-95611541D01*
X118570779Y-95703165D01*
X118602660Y-95780316D01*
X118627229Y-95839831D01*
X118643180Y-95878544D01*
X118649090Y-95893000D01*
X118663052Y-95907685D01*
X118690060Y-95907642D01*
X118733587Y-95892099D01*
X118797110Y-95860284D01*
X118797612Y-95860013D01*
X118845440Y-95835323D01*
X118884103Y-95817338D01*
X118905905Y-95809614D01*
X118906867Y-95809543D01*
X118923279Y-95817378D01*
X118959513Y-95839165D01*
X119011526Y-95872328D01*
X119075275Y-95914291D01*
X119145940Y-95961943D01*
X119217884Y-96010191D01*
X119282726Y-96052151D01*
X119336265Y-96085227D01*
X119374303Y-96106821D01*
X119392467Y-96114343D01*
X119409192Y-96104457D01*
X119442820Y-96076826D01*
X119489990Y-96034495D01*
X119547342Y-95980505D01*
X119611516Y-95917899D01*
X119632503Y-95896983D01*
X119849501Y-95679623D01*
X119684332Y-95437220D01*
X119634136Y-95362781D01*
X119590081Y-95295972D01*
X119554638Y-95240665D01*
X119530281Y-95200729D01*
X119519478Y-95180036D01*
X119519162Y-95178563D01*
X119524857Y-95159058D01*
X119540174Y-95119822D01*
X119562463Y-95067430D01*
X119578107Y-95032355D01*
X119607359Y-94965201D01*
X119634906Y-94897358D01*
X119656263Y-94840034D01*
X119662065Y-94822572D01*
X119678548Y-94775938D01*
X119694660Y-94739905D01*
X119703510Y-94726287D01*
X119723040Y-94717952D01*
X119765666Y-94706137D01*
X119825855Y-94692181D01*
X119898078Y-94677422D01*
X119930400Y-94671355D01*
X120012478Y-94656273D01*
X120091205Y-94641669D01*
X120158891Y-94628980D01*
X120207840Y-94619642D01*
X120217057Y-94617839D01*
X120293257Y-94602799D01*
X120293257Y-94285492D01*
X120293086Y-94181154D01*
X120292384Y-94102213D01*
X120290866Y-94045038D01*
X120288251Y-94005999D01*
X120284254Y-93981465D01*
X120278591Y-93967805D01*
X120270980Y-93961389D01*
X120267857Y-93960199D01*
X120249022Y-93955980D01*
X120207412Y-93947562D01*
X120148370Y-93935961D01*
X120077243Y-93922195D01*
X119999375Y-93907280D01*
X119920113Y-93892232D01*
X119844802Y-93878069D01*
X119778787Y-93865806D01*
X119727413Y-93856461D01*
X119696025Y-93851050D01*
X119689041Y-93850114D01*
X119682715Y-93837596D01*
X119668710Y-93804246D01*
X119649645Y-93756377D01*
X119642366Y-93737629D01*
X119613004Y-93665195D01*
X119578429Y-93585170D01*
X119547463Y-93517728D01*
X119524677Y-93466159D01*
X119509518Y-93423785D01*
X119504458Y-93397834D01*
X119505264Y-93394356D01*
X119515959Y-93377936D01*
X119540380Y-93341417D01*
X119575905Y-93288687D01*
X119619913Y-93223635D01*
X119669783Y-93150151D01*
X119679644Y-93135645D01*
X119737508Y-93049704D01*
X119780044Y-92984261D01*
X119808946Y-92936304D01*
X119825910Y-92902820D01*
X119832633Y-92880795D01*
X119830810Y-92867217D01*
X119830764Y-92867131D01*
X119816414Y-92849297D01*
X119784677Y-92814817D01*
X119738990Y-92767268D01*
X119682796Y-92710222D01*
X119619532Y-92647255D01*
X119612398Y-92640227D01*
X119532670Y-92563020D01*
X119471143Y-92506330D01*
X119426579Y-92469110D01*
X119397743Y-92450315D01*
X119385042Y-92447889D01*
X119366506Y-92458471D01*
X119328039Y-92482916D01*
X119273614Y-92518612D01*
X119207202Y-92562947D01*
X119132775Y-92613311D01*
X119115399Y-92625160D01*
X118868703Y-92793626D01*
X118757294Y-92743062D01*
X118689543Y-92713595D01*
X118616817Y-92683959D01*
X118554297Y-92660330D01*
X118551543Y-92659358D01*
X118502640Y-92641457D01*
X118464943Y-92626320D01*
X118446575Y-92617210D01*
X118446544Y-92617184D01*
X118440715Y-92600717D01*
X118430808Y-92560219D01*
X118417805Y-92500242D01*
X118402691Y-92425340D01*
X118386448Y-92340064D01*
X118385119Y-92332875D01*
X118368825Y-92245014D01*
X118353867Y-92165260D01*
X118341209Y-92098681D01*
X118331814Y-92050347D01*
X118326646Y-92025325D01*
X118326556Y-92024943D01*
X118323411Y-92014299D01*
X118317296Y-92006262D01*
X118304547Y-92000467D01*
X118281500Y-91996547D01*
X118244491Y-91994135D01*
X118189856Y-91992865D01*
X118113933Y-91992371D01*
X118013056Y-91992286D01*
X118000000Y-91992286D01*
X117896090Y-91992348D01*
M02*
