G04 #@! TF.GenerationSoftware,KiCad,Pcbnew,(2017-06-16 revision 2018d4894)-master*
G04 #@! TF.CreationDate,2017-12-14T22:16:53+01:00*
G04 #@! TF.ProjectId,LT3045_breakout,4C54333034355F627265616B6F75742E,rev?*
G04 #@! TF.SameCoordinates,Original
G04 #@! TF.FileFunction,Legend,Top*
G04 #@! TF.FilePolarity,Positive*
%FSLAX46Y46*%
G04 Gerber Fmt 4.6, Leading zero omitted, Abs format (unit mm)*
G04 Created by KiCad (PCBNEW (2017-06-16 revision 2018d4894)-master) date Thu Dec 14 22:16:53 2017*
%MOMM*%
%LPD*%
G01*
G04 APERTURE LIST*
%ADD10C,0.100000*%
%ADD11C,0.150000*%
%ADD12C,0.200000*%
%ADD13C,0.120000*%
G04 APERTURE END LIST*
D10*
D11*
X114261904Y-97785714D02*
X113880952Y-98052380D01*
X114261904Y-98242857D02*
X113461904Y-98242857D01*
X113461904Y-97938095D01*
X113500000Y-97861904D01*
X113538095Y-97823809D01*
X113614285Y-97785714D01*
X113728571Y-97785714D01*
X113804761Y-97823809D01*
X113842857Y-97861904D01*
X113880952Y-97938095D01*
X113880952Y-98242857D01*
X114261904Y-97328571D02*
X114223809Y-97404761D01*
X114147619Y-97442857D01*
X113461904Y-97442857D01*
X114261904Y-97023809D02*
X113728571Y-97023809D01*
X113461904Y-97023809D02*
X113500000Y-97061904D01*
X113538095Y-97023809D01*
X113500000Y-96985714D01*
X113461904Y-97023809D01*
X113538095Y-97023809D01*
X114261904Y-96642857D02*
X113728571Y-96642857D01*
X113804761Y-96642857D02*
X113766666Y-96604761D01*
X113728571Y-96528571D01*
X113728571Y-96414285D01*
X113766666Y-96338095D01*
X113842857Y-96300000D01*
X114261904Y-96300000D01*
X113842857Y-96300000D02*
X113766666Y-96261904D01*
X113728571Y-96185714D01*
X113728571Y-96071428D01*
X113766666Y-95995238D01*
X113842857Y-95957142D01*
X114261904Y-95957142D01*
X122761904Y-96847619D02*
X122380952Y-97114285D01*
X122761904Y-97304761D02*
X121961904Y-97304761D01*
X121961904Y-97000000D01*
X122000000Y-96923809D01*
X122038095Y-96885714D01*
X122114285Y-96847619D01*
X122228571Y-96847619D01*
X122304761Y-96885714D01*
X122342857Y-96923809D01*
X122380952Y-97000000D01*
X122380952Y-97304761D01*
X122723809Y-96542857D02*
X122761904Y-96466666D01*
X122761904Y-96314285D01*
X122723809Y-96238095D01*
X122647619Y-96200000D01*
X122609523Y-96200000D01*
X122533333Y-96238095D01*
X122495238Y-96314285D01*
X122495238Y-96428571D01*
X122457142Y-96504761D01*
X122380952Y-96542857D01*
X122342857Y-96542857D01*
X122266666Y-96504761D01*
X122228571Y-96428571D01*
X122228571Y-96314285D01*
X122266666Y-96238095D01*
X122723809Y-95552380D02*
X122761904Y-95628571D01*
X122761904Y-95780952D01*
X122723809Y-95857142D01*
X122647619Y-95895238D01*
X122342857Y-95895238D01*
X122266666Y-95857142D01*
X122228571Y-95780952D01*
X122228571Y-95628571D01*
X122266666Y-95552380D01*
X122342857Y-95514285D01*
X122419047Y-95514285D01*
X122495238Y-95895238D01*
X122228571Y-95285714D02*
X122228571Y-94980952D01*
X121961904Y-95171428D02*
X122647619Y-95171428D01*
X122723809Y-95133333D01*
X122761904Y-95057142D01*
X122761904Y-94980952D01*
D12*
X118309523Y-98100000D02*
X118233333Y-98061904D01*
X118119047Y-98061904D01*
X118004761Y-98100000D01*
X117928571Y-98176190D01*
X117890476Y-98252380D01*
X117852380Y-98404761D01*
X117852380Y-98519047D01*
X117890476Y-98671428D01*
X117928571Y-98747619D01*
X118004761Y-98823809D01*
X118119047Y-98861904D01*
X118195238Y-98861904D01*
X118309523Y-98823809D01*
X118347619Y-98785714D01*
X118347619Y-98519047D01*
X118195238Y-98519047D01*
X122423809Y-99861904D02*
X122576190Y-99861904D01*
X122652380Y-99900000D01*
X122728571Y-99976190D01*
X122766666Y-100128571D01*
X122766666Y-100395238D01*
X122728571Y-100547619D01*
X122652380Y-100623809D01*
X122576190Y-100661904D01*
X122423809Y-100661904D01*
X122347619Y-100623809D01*
X122271428Y-100547619D01*
X122233333Y-100395238D01*
X122233333Y-100128571D01*
X122271428Y-99976190D01*
X122347619Y-99900000D01*
X122423809Y-99861904D01*
X113900000Y-100561904D02*
X113900000Y-99761904D01*
D13*
X120420000Y-97100000D02*
X120420000Y-96100000D01*
X121780000Y-96100000D02*
X121780000Y-97100000D01*
X116500000Y-97830000D02*
X115500000Y-97830000D01*
X115500000Y-96470000D02*
X116500000Y-96470000D01*
D11*
X116200000Y-92900000D02*
X119375000Y-92900000D01*
X116925000Y-96200000D02*
X119375000Y-96200000D01*
D13*
X121970000Y-98930000D02*
X121970000Y-100200000D01*
X120700000Y-98930000D02*
X121970000Y-98930000D01*
X115240000Y-101242929D02*
X115240000Y-101640000D01*
X116000000Y-101242929D02*
X116000000Y-101640000D01*
X115240000Y-110300000D02*
X115240000Y-104300000D01*
X116000000Y-110300000D02*
X115240000Y-110300000D01*
X116000000Y-104300000D02*
X116000000Y-110300000D01*
X116890000Y-101640000D02*
X116890000Y-104300000D01*
X117780000Y-101242929D02*
X117780000Y-101640000D01*
X118540000Y-101242929D02*
X118540000Y-101640000D01*
X117780000Y-110300000D02*
X117780000Y-104300000D01*
X118540000Y-110300000D02*
X117780000Y-110300000D01*
X118540000Y-104300000D02*
X118540000Y-110300000D01*
X119430000Y-101640000D02*
X119430000Y-104300000D01*
X120320000Y-101310000D02*
X120320000Y-101640000D01*
X121080000Y-101310000D02*
X121080000Y-101640000D01*
X120420000Y-104300000D02*
X120420000Y-110300000D01*
X120540000Y-104300000D02*
X120540000Y-110300000D01*
X120660000Y-104300000D02*
X120660000Y-110300000D01*
X120780000Y-104300000D02*
X120780000Y-110300000D01*
X120900000Y-104300000D02*
X120900000Y-110300000D01*
X121020000Y-104300000D02*
X121020000Y-110300000D01*
X120320000Y-110300000D02*
X120320000Y-104300000D01*
X121080000Y-110300000D02*
X120320000Y-110300000D01*
X121080000Y-104300000D02*
X121080000Y-110300000D01*
X122030000Y-104300000D02*
X122030000Y-101640000D01*
X114290000Y-104300000D02*
X122030000Y-104300000D01*
X114290000Y-101640000D02*
X114290000Y-104300000D01*
X122030000Y-101640000D02*
X114290000Y-101640000D01*
X118550000Y-96500000D02*
X119250000Y-96500000D01*
X119250000Y-97700000D02*
X118550000Y-97700000D01*
X115400000Y-94100000D02*
X115400000Y-94800000D01*
X114200000Y-94800000D02*
X114200000Y-94100000D01*
X120450000Y-94200000D02*
X120450000Y-93500000D01*
X121650000Y-93500000D02*
X121650000Y-94200000D01*
X121650000Y-92430000D02*
X122150000Y-92430000D01*
X122150000Y-91370000D02*
X121650000Y-91370000D01*
X114550000Y-91570000D02*
X114050000Y-91570000D01*
X114050000Y-92630000D02*
X114550000Y-92630000D01*
M02*
