M48
;DRILL file {KiCad (2017-06-16 revision 2018d4894)-master} date Thu Dec 14 22:16:51 2017
;FORMAT={-:-/ absolute / inch / decimal}
FMAT,2
INCH,TZ
T1C0.012
T2C0.039
%
G90
G05
M72
T1
X4.4823Y-3.6496
X4.4843Y-3.4685
X4.4843Y-3.5079
X4.4843Y-3.5472
X4.5157Y-3.4685
X4.5157Y-3.5079
X4.5157Y-3.5472
X4.5197Y-3.7244
X4.5354Y-3.8504
X4.5551Y-3.4685
X4.5551Y-3.5079
X4.5551Y-3.5472
X4.5551Y-3.5866
X4.5551Y-3.6299
X4.5591Y-3.7441
X4.5945Y-3.6457
X4.626Y-3.7756
X4.6339Y-3.6654
X4.6363Y-3.698
X4.6363Y-3.7469
X4.6496Y-3.6339
X4.6516Y-3.7224
X4.6654Y-3.6654
X4.6668Y-3.698
X4.6668Y-3.7469
X4.6772Y-3.7756
X4.7047Y-3.6457
X4.7441Y-3.4685
X4.7441Y-3.5079
X4.7441Y-3.5472
X4.7441Y-3.5866
X4.7638Y-3.7047
X4.7677Y-3.8622
X4.7835Y-3.4685
X4.7835Y-3.5079
X4.7835Y-3.5472
X4.815Y-3.4685
X4.815Y-3.5079
X4.815Y-3.5472
T2
X4.552Y-3.9449
X4.652Y-3.9449
X4.752Y-3.9449
T0
M30
